<svg xmlns="http://www.w3.org/2000/svg" viewBox="0 0 453.011 380.813"><defs><style>.cls-1{fill:#f83026;}</style></defs><title>CALL CENTER - negro</title><g id="DESIGNED_BY_FREEPIK" data-name="DESIGNED BY FREEPIK"><path d="M103.117,167.99V152.454a53.14,53.14,0,0,1,53.14-53.141H295.74c9.7,0,19.725-.077,29.277,1.594,3.437.6,6.257.765,9.984,1.637,27.989,6.547,48.67,17.139,63.686,40.653a113.5,113.5,0,0,1,9.538,18.11,89.781,89.781,0,0,1-11.539,88.038q-.833,1.111-1.7,2.231c-16,20.736-36.643,33.763-62.518,39.311,10.357,4.045,20.5,7.087,30.622,10.228,21.755,6.755,39.856,25.063,40.065,42.161.394,32.371-.056,64.753-.155,97.129H306.857c-.131-21.34-.08-42.684-.45-64.02-.291-16.743,1.526-33.567-1.462-50.219-3.044-16.966-9.252-22.657-26.676-22.7-7.313-.017-8.622-2.461-8.534-9.177.251-19.175.153-18.709.161-56.046,4.5-.463,9.866-.6,15.044-1.648,7.276-1.476,14.493-4.33,16.562-12.21,8.267-31.472,3.235-53.705-33.9-56.336-5.319-.377-10.669-.5-16-.46" transform="translate(-24.525 -59.594)"/><path class="cls-1" d="M247.337,440.406H139.744a36.626,36.626,0,0,1-36.627-36.627h0V184.014c31.223-.145,62.447-.165,93.667-.54,6.463-.078,7.488,3.025,7.4,8.386-.218,12.567.133,25.145-.191,37.707-.165,6.429,2.1,8.663,8.642,8.369,11.024-.5,22.089.038,33.132-.158,6.987-.124,8.606,2.13,8.5,12.2-.143,13.031.44,24.089.13,39.475-.2,9.869-1.3,12.014-8.437,11.725-9.887-.4-19.851.5-29.693-.277-9.187-.73-12.816,1.7-12.343,11.642.814,17.1.187,34.271.239,51.412.091,29.5,2.855,31.038,32.936,30.793,5.953-.048,10.681-.289,10.681-.289L247.6,405S247.393,428.6,247.337,440.406Z" transform="translate(-24.525 -59.594)"/><path d="M247.288,59.634c33.935-.142,64.637,1.957,94.362,7.819A234.479,234.479,0,0,1,369.43,74.6c4.144,1.362,7.242,3.174,8.786,5.779.837,1.413,2.462,2.339,4.473,3.191,23.091,9.782,38.682,22.75,48.574,38.184a89.338,89.338,0,0,1,7.753,15.927c.764,1.942-.239,2.729-3.528,3-4.942.414-9.909.843-14.736,1.558-3.849.571-5.219-.29-5.883-2.294a63.011,63.011,0,0,0-11.408-20.193c-7.878-9.588-18.816-17.736-33.491-24.174a15.9,15.9,0,0,0-7.512-1.44,30.786,30.786,0,0,1-10.872-1.478c-20.573-6.427-42.826-9.608-65.868-11.148-16.123-1.078-32.331-1.408-48.535-1.027-27.538.647-54.6,2.8-80.075,9.4-3.176.822-6.242,1.786-9.358,2.686-3.138.906-6.355,1.841-9.944,1.563-4.724-.367-8.041.972-11.4,2.567-22.156,10.514-34.751,24.308-41.16,40.2-2.842,7.047-1.606,5.863-12.448,4.728-3.278-.343-6.537-.757-9.833-1.023-2.959-.239-3.664-1.035-3.068-2.709A80.012,80.012,0,0,1,74.92,112.053C84.944,100.46,99.046,90.875,117,83.167c1.477-.634,2.863-1.252,3.395-2.365,1.576-3.3,5.746-5.248,10.72-6.773,22.645-6.941,46.915-10.8,72.183-12.764C218.784,60.063,234.328,59.42,247.288,59.634Z" transform="translate(-24.525 -59.594)"/><path d="M441.478,217.252c0-15.393.053-30.785-.058-46.177-.017-2.46.684-3.332,3.12-3.086,6.256.634,12.485,1.35,18.085,4.533,8.557,4.863,12.176,12.892,13.387,22.086a171.31,171.31,0,0,1-.055,46.011c-2.127,15.342-11.325,23.812-26.82,25.466-7.661.817-7.659.817-7.658-6.8Q441.482,238.267,441.478,217.252Z" transform="translate(-24.525 -59.594)"/><path d="M436.784,217.248q0,21.708,0,43.414c0,7.261-1.062,8.4-8.346,8.956a7.162,7.162,0,0,1-1.1.048c-7-.529-9.7-.318-9.633-9.716.205-29.033.073-58.069.077-87.1,0-5.852,1.7-7.612,7.5-7.735,1.658-.035,3.321-.05,4.976.03,4.633.222,6.508,2.12,6.518,6.758Q436.819,194.573,436.784,217.248Z" transform="translate(-24.525 -59.594)"/><path d="M64.4,216.607q0-22.376,0-44.751c0-5.827,1.738-7.562,7.65-7.679,1.482-.03,2.966-.039,4.446.013,5.083.18,7,2.131,7.009,7.243q.033,27.517.013,55.035,0,17.511,0,35.022c0,1.967-.038,3.935-1.308,5.568-.909,1.169-.258,2.094.3,3.045,6.8,11.7,15.065,22.178,25.581,30.8a3.032,3.032,0,0,0,3.57.356,6.37,6.37,0,0,1,5.586-.2c13.253,5.513,26.542,10.959,39.966,16.039,9.914,3.751,9.125,15.648,2.726,20.8a10,10,0,0,1-10.45,1.737c-13.341-5.3-26.63-10.729-39.925-16.143-4.138-1.684-6.144-4.92-6.26-9.3a4.529,4.529,0,0,0-1.872-3.708,125,125,0,0,1-30.773-38.287,8.267,8.267,0,0,0-3.584-4.042c-2.4-1.214-2.69-3.529-2.686-5.96Q64.42,239.4,64.4,216.607Z" transform="translate(-24.525 -59.594)"/><path d="M60.787,216.906c0-15.479-.053-30.959.058-46.437.017-2.471-.684-3.353-3.137-3.1-6.291.637-12.555,1.357-18.186,4.557-8.6,4.891-12.246,12.964-13.464,22.21a172.286,172.286,0,0,0,.055,46.27c2.138,15.428,11.389,23.948,26.97,25.611,7.7.822,7.7.822,7.7-6.84Q60.782,238.039,60.787,216.906Z" transform="translate(-24.525 -59.594)"/></g></svg>