<?xml version="1.0" standalone="no"?>
<!DOCTYPE svg PUBLIC "-//W3C//DTD SVG 20010904//EN"
 "http://www.w3.org/TR/2001/REC-SVG-20010904/DTD/svg10.dtd">
<svg version="1.0" xmlns="http://www.w3.org/2000/svg"
 width="980.000000pt" height="980.000000pt" viewBox="0 0 980.000000 980.000000"
 preserveAspectRatio="xMidYMid meet">

<g transform="translate(0.000000,980.000000) scale(0.100000,-0.100000)"
fill="#000000" stroke="none">
<path d="M4430 9770 c-1197 -168 -2213 -808 -2865 -1804 -184 -281 -301 -521
-415 -853 -72 -208 -170 -597 -170 -675 0 -61 -18 -78 -117 -113 -197 -70
-393 -194 -519 -328 -131 -139 -213 -281 -297 -512 l-40 -110 -1 -750 c-1
-819 1 -857 55 -1020 113 -338 376 -624 707 -770 181 -80 182 -80 502 -80
l285 0 95 33 c324 113 592 345 748 649 84 163 102 230 112 417 13 228 12 1306
-1 1445 -17 189 -80 358 -197 535 -66 100 -210 246 -329 333 -57 42 -103 77
-103 78 0 19 46 250 61 305 90 334 224 657 360 872 466 732 1173 1232 1974
1393 250 51 350 59 670 59 324 0 443 -10 678 -60 875 -185 1654 -783 2068
-1588 139 -271 243 -573 289 -836 6 -36 13 -73 16 -82 4 -12 -25 -37 -113 -97
-256 -173 -406 -344 -506 -576 -91 -210 -106 -355 -106 -1015 -1 -486 13 -829
39 -950 32 -156 131 -340 271 -506 70 -83 211 -207 284 -250 43 -25 46 -29 41
-58 -13 -69 -197 -386 -338 -583 -347 -482 -796 -854 -1317 -1089 -244 -110
-597 -212 -851 -245 -52 -7 -208 -13 -347 -13 l-251 -1 -27 25 c-15 14 -52 56
-82 93 -118 147 -239 208 -667 338 -179 54 -260 69 -373 69 -160 0 -282 -41
-401 -132 -143 -111 -242 -318 -242 -507 1 -228 124 -438 324 -550 129 -73
410 -172 630 -222 127 -29 303 -36 383 -16 121 31 227 102 342 229 l42 46 212
-5 c891 -23 1700 243 2404 788 150 116 477 444 607 609 226 285 374 527 535
872 l74 157 51 11 c28 5 93 17 145 25 317 52 630 256 824 539 46 69 127 228
152 301 32 95 45 181 56 380 14 240 6 1230 -10 1350 -31 226 -136 452 -294
633 -119 137 -277 252 -450 330 -56 24 -103 46 -104 47 -2 0 -21 91 -43 201
-22 109 -52 242 -66 294 -298 1113 -1037 2020 -2064 2533 -311 156 -583 256
-900 331 -323 77 -419 87 -905 91 -343 4 -406 2 -525 -15z"/>
</g>
</svg>
