<?xml version="1.0" encoding="iso-8859-1"?>
<!-- Generator: Adobe Illustrator 17.1.0, SVG Export Plug-In . SVG Version: 6.00 Build 0)  -->
<!DOCTYPE svg PUBLIC "-//W3C//DTD SVG 1.1//EN" "http://www.w3.org/Graphics/SVG/1.1/DTD/svg11.dtd">
<svg version="1.1" id="Capa_1" xmlns="http://www.w3.org/2000/svg" xmlns:xlink="http://www.w3.org/1999/xlink" x="0px" y="0px"
	 viewBox="0 0 186.333 186.333" style="enable-background:new 0 0 186.333 186.333;" xml:space="preserve">
<path d="M179.681,155.277c-1.381,0-2.5-1.119-2.5-2.5v-10.558h-36.3v10.558c0,1.381-1.119,2.5-2.5,2.5s-2.5-1.119-2.5-2.5v-43.563
	c0-1.381,1.119-2.5,2.5-2.5h38.982l3.978-52.567c0.104-1.376,1.311-2.402,2.681-2.304c1.377,0.104,2.409,1.305,2.304,2.681
	l-4.145,54.785v43.468C182.181,154.158,181.062,155.277,179.681,155.277z M140.88,137.219h36.3v-25.505h-36.3V137.219z
	 M122.245,155.277H64.538c-1.381,0-2.5-1.119-2.5-2.5s1.119-2.5,2.5-2.5h17.776v-8.899c-5.057-3.587-8.034-9.302-8.034-15.553
	s2.977-11.965,8.034-15.554V85.124H26.915c-1.381,0-2.5-1.119-2.5-2.5s1.119-2.5,2.5-2.5h30.502v-8.019
	c-4.899-1.137-8.563-5.538-8.563-10.778c0-1.381,1.119-2.5,2.5-2.5h17.125c1.381,0,2.5,1.119,2.5,2.5
	c0,5.24-3.663,9.641-8.562,10.778v8.019h23.75V56.64c0-3.539,2.309-6.548,5.5-7.6V33.556c0-1.381,1.119-2.5,2.5-2.5
	s2.5,1.119,2.5,2.5V49.04c3.191,1.052,5.5,4.062,5.5,7.6v23.484h27.5v-8.019c-4.899-1.137-8.563-5.538-8.563-10.778
	c0-1.381,1.119-2.5,2.5-2.5h17.125c1.381,0,2.5,1.119,2.5,2.5c0,5.24-3.663,9.641-8.563,10.778v8.019h25.201
	c1.381,0,2.5,1.119,2.5,2.5s-1.119,2.5-2.5,2.5h-55.399v25.147c5.057,3.588,8.034,9.302,8.034,15.554
	c0,6.252-2.977,11.966-8.034,15.553v8.899h17.777c1.381,0,2.5,1.119,2.5,2.5S123.626,155.277,122.245,155.277z M87.314,150.277
	h12.154V140.03c0-0.875,0.458-1.686,1.206-2.139c4.275-2.587,6.828-7.098,6.828-12.066s-2.553-9.479-6.829-12.067
	c-0.749-0.453-1.206-1.264-1.206-2.139V85.124H87.314v26.496c0,0.875-0.457,1.686-1.206,2.139
	c-4.275,2.588-6.828,7.099-6.828,12.067s2.553,9.479,6.828,12.066c0.748,0.453,1.206,1.264,1.206,2.139V150.277z M91.167,80.124h6
	V56.64c0-1.654-1.346-3-3-3s-3,1.346-3,3V80.124z M126.644,63.827c0.954,2.099,3.071,3.562,5.523,3.562s4.569-1.463,5.523-3.562
	H126.644z M54.394,63.827c0.954,2.099,3.071,3.562,5.523,3.562s4.569-1.463,5.523-3.562H54.394z M48.991,155.277
	c-1.381,0-2.5-1.119-2.5-2.5v-10.558h-36.3v10.558c0,1.381-1.119,2.5-2.5,2.5s-2.5-1.119-2.5-2.5v-43.445l-5.18-54.761
	c-0.13-1.375,0.879-2.594,2.253-2.724c1.382-0.134,2.594,0.879,2.724,2.253l4.977,52.614h39.025c1.381,0,2.5,1.119,2.5,2.5v43.563
	C51.491,154.158,50.372,155.277,48.991,155.277z M10.191,137.219h36.3v-25.505h-36.3V137.219z"/>
<g>
</g>
<g>
</g>
<g>
</g>
<g>
</g>
<g>
</g>
<g>
</g>
<g>
</g>
<g>
</g>
<g>
</g>
<g>
</g>
<g>
</g>
<g>
</g>
<g>
</g>
<g>
</g>
<g>
</g>
</svg>
